<svg width="51" height="50" viewBox="0 0 51 50" fill="none" xmlns="http://www.w3.org/2000/svg">
<g clip-path="url(#clip0_557_55339)">
<path d="M0.320007 23C0.480007 22.04 0.620007 21.08 0.800007 20.12C2.84001 9.51 11.88 1.25 22.66 0.14C22.89 0.11 23.1 0.05 23.32 0C24.65 0 25.99 0 27.32 0C28.3 0.16 29.28 0.31 30.26 0.5C32.64 0.94 35.88 2.16 37.41 3.18C37.13 3.51 36.89 3.87 36.57 4.14C36.45 4.24 36.11 4.2 35.93 4.1C33.75 3 31.47 2.25 29.07 1.87C18.67 0.22 8.53001 5.58 4.08001 15.12C2.00001 19.58 1.42001 24.24 2.26001 29.08C2.35001 29.58 2.29001 29.91 1.85001 30.18C1.57001 30.35 1.34001 30.61 1.05001 30.87C0.980007 30.61 0.890008 30.31 0.830008 30C0.650008 29 0.490007 28 0.320007 27C0.320007 25.67 0.320007 24.33 0.320007 23Z" fill="black"/>
<path d="M50.32 27.0009C50.16 27.9609 50.02 28.9209 49.84 29.8809C47.79 40.5109 38.76 48.7509 27.98 49.8709C27.76 49.8909 27.54 49.9609 27.32 50.0109C25.99 50.0109 24.65 50.0109 23.32 50.0109C22.16 49.8109 21 49.6109 19.83 49.4009C19.55 49.3509 19.28 49.2709 18.83 49.1609C19.87 48.5809 20.6 47.9509 21.83 48.1509C34.77 50.2609 47.13 40.8109 48.58 27.7509C48.71 26.6209 48.7 25.4709 48.73 24.3209C48.74 23.9909 48.79 23.8009 49.14 23.6809C49.55 23.5509 49.92 23.3209 50.31 23.1309C50.32 24.4209 50.32 25.7109 50.32 27.0009Z" fill="black"/>
<path d="M18.13 41.48C18.45 41.84 18.7 42.17 19.01 42.43C19.8 43.11 20.63 43.74 21.43 44.41C22.06 44.94 22.03 45.5 21.33 45.91C20.2 46.57 19.05 47.21 17.91 47.86C17.47 48.11 17.09 48.08 16.71 47.75C15.78 46.98 14.83 46.23 13.91 45.46C13.69 45.28 13.52 45.03 13.37 44.78C12.46 43.24 11.55 41.7 10.61 40.08C10.14 40.36 9.7 40.62 9.26 40.88C7.55 41.87 5.94 41.44 4.96 39.72C4.09 38.2 3.23 36.68 2.37 35.15C1.45 33.52 1.86 31.78 3.51 30.93C5.68 29.81 7.39 28.22 8.96 26.37C13.64 20.84 18.42 15.39 23.17 9.90996C23.29 9.76996 23.41 9.61996 23.5 9.45996C24.2 8.27996 25.13 7.86996 26.39 8.39996C27.28 8.77996 28.14 9.29996 28.88 9.91996C31.49 12.12 33.46 14.86 35.21 17.76C37.26 21.16 39.04 24.7 39.87 28.62C40.1 29.68 40.13 30.81 40.08 31.9C40.02 33.15 39.2 33.93 37.93 34.17C32.22 35.23 26.52 36.38 20.83 37.51C20.67 37.54 20.43 37.71 20.41 37.85C20.16 39.34 19.37 40.47 18.13 41.48ZM35.08 33.1C28.96 27.38 25.03 20.49 23.05 12.32C22.95 12.48 22.89 12.59 22.81 12.68C18.06 18.18 13.3 23.68 8.54 29.16C8.28 29.45 8.31 29.67 8.48 29.98C9.78 32.26 11.09 34.53 12.35 36.83C12.63 37.35 12.91 37.46 13.48 37.34C17.91 36.45 22.34 35.58 26.78 34.71C29.54 34.19 32.29 33.65 35.08 33.1ZM30.88 25.99C32.51 28.24 34.18 30.47 36.55 32.04C36.76 32.18 36.98 32.29 37.21 32.38C38.06 32.74 38.55 32.5 38.56 31.58C38.57 30.59 38.5 29.57 38.26 28.62C37.15 24.13 34.99 20.13 32.41 16.34C30.97 14.24 29.39 12.24 27.34 10.69C26.85 10.32 26.27 10.06 25.7 9.81996C25.26 9.62996 24.88 9.84996 24.81 10.32C24.72 10.91 24.65 11.53 24.73 12.11C25.03 14.49 25.87 16.71 26.87 18.87C26.89 18.92 26.96 18.95 27 18.98C29.07 18.56 30.53 19.11 31.51 20.67C32.58 22.37 32.4 23.94 30.88 25.99ZM6.81 30.77C5.83 31.35 4.93 31.86 4.05 32.41C3.46 32.78 3.25 33.51 3.58 34.11C4.52 35.82 5.48 37.52 6.46 39.21C6.79 39.77 7.42 40.02 7.97 39.74C8.98 39.23 9.95 38.63 10.98 38.04C9.58 35.6 8.22 33.22 6.81 30.77ZM19.68 45.03C19.19 44.63 18.8 44.26 18.36 43.96C17.61 43.43 17.08 42.74 16.64 41.94C16.11 40.97 15.54 40.03 14.97 39.09C14.88 38.94 14.66 38.74 14.52 38.76C13.68 38.89 12.85 39.07 11.92 39.25C12.5 40.24 13.09 41.13 13.54 42.07C14.33 43.74 15.57 44.99 17.06 46.02C17.21 46.12 17.47 46.25 17.59 46.19C18.28 45.85 18.94 45.45 19.68 45.03ZM29.92 24.59C30.82 23.57 30.8 22.24 29.99 21.23C29.37 20.47 28.39 20.18 27.64 20.59C28.39 21.91 29.13 23.21 29.92 24.59ZM18.83 38.11C18.77 38.05 18.71 37.99 18.66 37.92C17.93 38.06 17.2 38.21 16.39 38.36C16.75 38.97 17.05 39.48 17.46 40.17C17.97 39.4 18.4 38.76 18.83 38.11Z" fill="black"/>
<path d="M45.39 10.8809C45.59 11.0309 45.9 11.1609 46 11.3809C46.09 11.6009 46.02 11.9409 45.92 12.1909C45.85 12.3609 45.62 12.4709 45.45 12.5809C43.63 13.7509 41.81 14.9209 39.99 16.0909C39.92 16.1409 39.85 16.1809 39.78 16.2209C39.35 16.4909 38.93 16.4809 38.63 16.0409C38.32 15.5909 38.5 15.1909 38.92 14.9209C40.89 13.6409 42.88 12.3709 44.86 11.1009C44.98 11.0209 45.14 10.9809 45.39 10.8809Z" fill="black"/>
<path d="M49.12 21.7493C48.99 21.8593 48.79 22.1693 48.52 22.2293C46.26 22.7793 43.99 23.2893 41.72 23.7893C41.25 23.8993 40.89 23.6993 40.78 23.1993C40.67 22.6993 40.93 22.3793 41.4 22.2793C43.65 21.7593 45.89 21.2393 48.15 20.7493C48.74 20.6193 49.18 21.0093 49.12 21.7493Z" fill="black"/>
<path d="M49.68 19.3894C49.16 19.2994 48.7 19.2294 48.24 19.1294C48.13 19.0994 47.99 18.9794 47.95 18.8694C47.35 17.2594 46.77 15.6394 46.17 13.9894C46.48 13.7494 46.86 13.4594 47.3 13.1094C48.39 15.1094 49.18 17.1994 49.68 19.3894Z" fill="black"/>
<path d="M8.03001 43.0198C8.57001 42.8298 9.01001 42.6498 9.47001 42.5398C9.61001 42.4998 9.86001 42.5798 9.95001 42.6898C10.4 43.1998 10.83 43.7198 11.23 44.2698C11.46 44.5898 11.63 44.9498 11.83 45.2898C12.02 45.6098 12.21 45.9298 12.36 46.2898C10.79 45.4198 9.39001 44.3198 8.03001 43.0198Z" fill="black"/>
<path d="M12.61 28.9602C12.35 28.7502 12.02 28.6202 11.95 28.4002C11.86 28.1502 11.91 27.7602 12.06 27.5502C12.43 27.0302 12.89 26.5702 13.32 26.0902C14.8 24.4302 16.27 22.7702 17.75 21.1002C18.03 20.7902 18.32 20.5402 18.77 20.7002C19.36 20.9102 19.44 21.5602 18.94 22.1202C17.69 23.5402 16.43 24.9502 15.17 26.3602C14.55 27.0602 13.94 27.7702 13.3 28.4502C13.13 28.6502 12.88 28.7702 12.61 28.9602Z" fill="black"/>
</g>
<defs>
<clipPath id="clip0_557_55339">
<rect width="51" height="50" fill="white"/>
</clipPath>
</defs>
</svg>
