<svg width="35" height="50" viewBox="0 0 35 50" fill="none" xmlns="http://www.w3.org/2000/svg">
<g clip-path="url(#clip0_558_55434)">
<mask id="mask0_558_55434" style="mask-type:luminance" maskUnits="userSpaceOnUse" x="-1" y="-1" width="36" height="51">
<path d="M34.8 -0.400391H-0.200012V49.5996H34.8V-0.400391Z" fill="white"/>
</mask>
<g mask="url(#mask0_558_55434)">
<path d="M17.3 33.9996C26.5 33.9996 34 26.4996 34 17.2996C34 8.09961 26.5 0.599609 17.3 0.599609C8.09997 0.599609 0.599976 8.09961 0.599976 17.2996C0.599976 26.4996 8.09997 33.9996 17.3 33.9996Z" stroke="black" stroke-width="1.25" stroke-miterlimit="10"/>
<path d="M8.09998 15.2999C8.29998 14.6999 8.69998 14.4999 9.29998 14.4999C9.39998 14.4999 9.49998 14.4999 9.69998 14.4999C11.2 14.3999 12.7 14.1999 14.2 14.0999C14.3 14.0999 14.4 13.9999 14.4 13.8999C15.1 12.2999 15.7 10.6999 16.4 9.1999C16.7 8.5999 17.5 8.3999 18 8.7999C18.1 8.8999 18.2 9.0999 18.3 9.1999C19 10.6999 19.6 12.2999 20.3 13.7999C20.4 13.9999 20.5 13.9999 20.7 13.9999C22.4 14.1999 24.1 14.2999 25.8 14.4999C26.2 14.4999 26.5 14.7999 26.6 15.1999C26.7 15.5999 26.6 15.9999 26.3 16.2999C25.3 17.1999 24.3 17.9999 23.3 18.8999C23 19.1999 22.7 19.3999 22.4 19.6999C22.3 19.7999 22.3 19.8999 22.3 19.9999C22.7 21.5999 23.1 23.2999 23.4 24.9999C23.5 25.3999 23.4 25.7999 23 26.0999C22.6 26.3999 22.2 26.2999 21.9 26.0999C20.4 25.1999 19 24.3999 17.5 23.4999C17.4 23.3999 17.3 23.3999 17.2 23.4999C15.8 24.3999 14.3 25.2999 12.8 26.0999C12.3 26.3999 11.8 26.2999 11.5 25.8999C11.3 25.5999 11.2 25.2999 11.3 24.9999C11.7 23.2999 12.1 21.6999 12.4 19.9999C12.4 19.7999 12.4 19.6999 12.3 19.5999C11.1 18.5999 9.89998 17.4999 8.69998 16.3999C8.49998 16.1999 8.29998 15.9999 8.19998 15.6999C8.09998 15.4999 8.09998 15.3999 8.09998 15.2999ZM12.5 24.7999C12.6 24.7999 12.6 24.6999 12.7 24.6999C14 23.8999 15.4 23.0999 16.7 22.2999C17.1 21.9999 17.5 21.9999 17.9 22.2999C19.2 23.0999 20.6 23.8999 21.9 24.6999C22 24.6999 22 24.7999 22.1 24.7999C22.1 24.6999 22.1 24.6999 22.1 24.6999C21.7 23.0999 21.4 21.4999 21 19.9999C20.9 19.5999 21 19.1999 21.4 18.8999C22.6 17.8999 23.8 16.7999 24.9 15.7999C25 15.7999 25 15.6999 25.1 15.5999C25 15.5999 25 15.5999 25 15.5999C23.4 15.4999 21.8 15.2999 20.2 15.1999C19.7 15.1999 19.4 14.8999 19.3 14.4999C18.7 13.0999 18.1 11.5999 17.4 10.1999C17.4 10.0999 17.3 10.0999 17.3 9.9999C17.2 10.0999 17.2 10.1999 17.2 10.2999C16.6 11.6999 16 13.0999 15.4 14.4999C15.2 14.8999 15 15.0999 14.5 15.1999C13 15.2999 11.5 15.4999 9.99998 15.5999C9.79998 15.5999 9.69998 15.5999 9.49998 15.6999C9.59998 15.7999 9.59998 15.7999 9.69998 15.7999C10.9 16.7999 12.1 17.8999 13.3 18.8999C13.6 19.1999 13.7 19.4999 13.6 19.9999C13.3 21.0999 13.1 22.1999 12.8 23.3999C12.7 23.7999 12.6 24.2999 12.5 24.7999Z" fill="black"/>
<path d="M7.09998 33.6V43.6V47.2L17.2 41.6L26.8 47.9V31" stroke="black" stroke-width="1.25" stroke-miterlimit="10"/>
</g>
</g>
<defs>
<clipPath id="clip0_558_55434">
<rect width="34.6" height="49.1" fill="white"/>
</clipPath>
</defs>
</svg>
